<?xml version="1.0" standalone="no"?>
<!DOCTYPE svg PUBLIC "-//W3C//DTD SVG 20010904//EN"
 "http://www.w3.org/TR/2001/REC-SVG-20010904/DTD/svg10.dtd">
<svg version="1.0" xmlns="http://www.w3.org/2000/svg"
 width="684.000000pt" height="684.000000pt" viewBox="0 0 684.000000 684.000000"
 preserveAspectRatio="xMidYMid meet">
<metadata>
Created by potrace 1.14, written by Peter Selinger 2001-2017
</metadata>
<g transform="translate(0.000000,684.000000) scale(0.100000,-0.100000)"
fill="#000000" stroke="none">
<path d="M514 5939 c-10 -3 -23 -4 -29 -1 -5 3 -7 2 -3 -3 4 -4 3 -14 -2 -20
-7 -8 -4 -18 10 -30 11 -10 20 -22 20 -27 0 -16 28 -38 48 -38 37 0 46 30 27
88 -7 23 -47 40 -71 31z"/>
<path d="M4479 5940 l-186 -5 -26 -30 c-15 -16 -27 -34 -27 -38 0 -4 -10 -18
-22 -31 -13 -12 -36 -43 -52 -69 -17 -26 -34 -47 -38 -47 -4 0 -8 -5 -8 -11 0
-6 -7 -17 -15 -25 -8 -9 -36 -46 -62 -82 -26 -37 -56 -76 -66 -87 -10 -11 -34
-43 -53 -71 -19 -29 -46 -63 -61 -78 -14 -14 -23 -26 -19 -26 4 0 1 -6 -6 -14
-20 -21 -40 -48 -72 -94 -16 -23 -33 -42 -37 -42 -5 0 -9 -5 -9 -10 0 -6 -5
-16 -10 -23 -6 -7 -44 -57 -85 -112 -41 -55 -79 -105 -84 -111 -5 -7 -33 -44
-62 -83 l-52 -71 -23 25 c-49 53 -132 17 -120 -53 7 -44 14 -51 57 -58 26 -4
39 -1 56 15 l22 21 43 -57 c23 -32 57 -75 74 -96 28 -33 31 -43 24 -68 -13
-45 8 -86 43 -80 4 0 7 -3 7 -8 0 -5 8 -7 18 -5 22 5 34 -3 63 -47 29 -43 138
-190 178 -240 16 -20 41 -52 54 -72 14 -20 39 -54 55 -74 17 -21 65 -84 107
-141 l76 -103 -25 -30 c-31 -36 -33 -68 -8 -100 24 -29 78 -31 102 -2 16 20
16 20 38 -13 12 -19 28 -34 35 -34 6 0 27 22 44 48 18 26 41 57 51 67 10 11
19 24 20 28 0 4 12 21 26 37 l25 30 20 -28 c11 -15 27 -34 34 -42 7 -8 24 -31
37 -50 14 -19 29 -40 35 -47 5 -7 16 -19 23 -28 19 -22 24 -19 62 37 19 28 45
61 57 74 12 13 20 24 17 24 -4 0 7 15 22 34 54 63 64 76 56 76 -4 1 2 8 13 18
11 9 36 39 55 67 19 27 40 55 45 62 6 7 19 24 30 39 11 14 27 34 37 44 9 10
14 21 11 24 -4 3 -1 6 5 6 6 0 13 8 16 18 3 9 20 32 36 50 17 17 29 32 26 32
-4 0 2 9 12 19 31 35 43 51 76 102 18 27 36 46 39 42 4 -3 7 1 7 10 0 9 4 17
9 17 5 0 13 9 16 21 4 11 20 33 35 50 16 16 27 29 24 29 -3 0 7 12 21 27 14
15 25 31 25 34 0 3 8 15 18 27 9 11 24 30 32 42 8 12 20 28 26 34 5 6 35 45
64 86 30 41 65 86 77 100 13 14 23 28 23 31 0 3 8 15 18 27 9 11 24 30 32 42
8 12 24 32 35 45 11 13 36 46 55 74 19 29 45 64 58 79 13 15 36 45 50 67 15
22 32 44 39 48 7 4 13 14 13 22 0 7 11 22 25 33 14 11 25 23 25 27 0 6 37 58
65 92 51 62 105 141 105 152 0 7 5 9 10 6 6 -3 10 -2 10 3 0 8 53 81 116 159
14 17 36 48 49 68 28 40 34 48 70 89 14 16 25 34 25 41 0 9 -102 12 -422 14
-233 1 -625 2 -873 4 -247 1 -534 0 -636 -3z"/>
<path d="M752 5920 c-11 -12 -19 -29 -17 -38 2 -9 4 -24 4 -32 2 -31 20 -43
65 -46 25 -1 46 1 46 6 0 5 13 8 29 8 15 -1 33 2 40 6 15 9 14 58 -1 88 -11
20 -21 24 -80 26 -57 2 -69 0 -86 -18z"/>
<path d="M1030 5920 c-42 -42 -10 -124 43 -109 1 0 14 -4 30 -10 20 -8 27 -7
27 1 0 6 3 9 6 5 12 -12 63 15 66 36 4 25 -11 79 -24 88 -5 3 -36 7 -68 8 -48
1 -63 -2 -80 -19z"/>
<path d="M1307 5922 c-22 -24 -28 -110 -7 -97 6 3 10 2 10 -4 0 -10 67 -28 85
-22 6 2 21 5 34 7 27 6 66 44 53 53 -4 3 -7 18 -7 33 1 15 -2 25 -6 22 -4 -2
-9 2 -11 8 -7 21 -133 21 -151 0z"/>
<path d="M1584 5923 c-14 -15 -18 -32 -14 -68 2 -27 20 -43 50 -47 14 -2 28
-7 32 -13 5 -6 8 -5 8 3 0 9 5 10 17 4 18 -11 48 1 71 28 14 17 9 77 -8 94
-17 17 -139 16 -156 -1z"/>
<path d="M1873 5930 c-25 -10 -38 -48 -29 -84 7 -27 49 -46 90 -42 14 2 26 -1
26 -5 0 -5 15 0 33 9 27 16 32 25 35 60 3 34 -1 43 -20 55 -26 16 -102 20
-135 7z"/>
<path d="M2133 5917 c-23 -27 -22 -72 1 -95 8 -8 33 -15 55 -16 23 -1 41 -5
41 -9 0 -4 9 -3 20 3 11 6 20 8 20 5 0 -3 10 3 22 14 28 27 27 76 -3 102 -34
29 -129 27 -156 -4z"/>
<path d="M2464 5915 c-19 -27 -18 -68 4 -91 23 -25 81 -25 105 -1 23 23 17 85
-9 104 -26 19 -84 12 -100 -12z"/>
<path d="M1052 5656 c-42 -21 -55 -74 -29 -111 25 -33 173 -26 174 8 0 7 3 21
7 33 4 14 0 30 -14 46 -16 21 -31 27 -71 30 -28 1 -58 -1 -67 -6z"/>
<path d="M1660 5662 c-60 -4 -76 -11 -87 -34 -14 -32 -7 -70 18 -90 22 -19
115 -23 125 -7 3 5 9 7 14 4 17 -11 36 52 25 85 -8 26 -53 46 -95 42z"/>
<path d="M1911 5659 c-53 -7 -74 -31 -67 -78 6 -48 18 -55 91 -56 74 0 96 14
97 64 2 58 -39 82 -121 70z"/>
<path d="M751 5634 c-39 -50 3 -122 63 -110 17 4 37 13 45 20 17 18 17 60 1
92 -19 35 -81 34 -109 -2z"/>
<path d="M1307 5640 c-24 -23 -25 -74 -2 -96 17 -18 89 -27 132 -17 12 3 28
18 36 35 12 25 13 34 1 56 -18 36 -32 42 -94 41 -40 0 -60 -5 -73 -19z"/>
<path d="M2142 5642 c-29 -25 -34 -63 -12 -92 13 -18 29 -24 66 -26 67 -4 89
3 105 33 32 59 -5 103 -86 103 -36 0 -58 -6 -73 -18z"/>
<path d="M2412 5643 c-7 -6 -14 -26 -17 -43 -4 -24 0 -36 20 -56 21 -21 32
-24 77 -22 68 5 87 16 94 59 9 57 -12 74 -94 74 -40 0 -74 -5 -80 -12z"/>
<path d="M2749 5642 c-27 -23 -30 -73 -6 -100 21 -23 85 -24 100 -1 14 22 3
59 -28 92 -31 32 -36 33 -66 9z"/>
<path d="M1030 5368 c-43 -47 -15 -118 46 -118 40 0 62 18 70 57 5 26 1 37
-19 57 -32 32 -69 33 -97 4z"/>
<path d="M1307 5361 c-29 -35 -26 -74 6 -96 33 -23 122 -20 147 5 12 12 18 25
15 30 -3 4 1 11 7 14 11 5 11 7 0 12 -6 3 -10 9 -7 14 11 18 -45 47 -94 48
-43 1 -53 -2 -74 -27z"/>
<path d="M1607 5383 c-24 -6 -47 -55 -40 -84 9 -37 32 -49 95 -49 72 0 104 24
94 72 -3 17 -6 34 -6 38 0 21 -89 35 -143 23z"/>
<path d="M1880 5382 c-38 -13 -50 -81 -20 -117 19 -23 138 -21 156 3 20 26 17
79 -5 101 -20 20 -93 27 -131 13z"/>
<path d="M2153 5378 c-46 -22 -46 -110 0 -122 49 -13 124 -6 140 12 17 19 22
68 9 88 -20 31 -104 43 -149 22z"/>
<path d="M2429 5376 c-41 -20 -44 -93 -5 -118 6 -4 39 -8 73 -8 56 0 64 3 79
25 14 22 15 32 5 66 -7 22 -16 37 -21 34 -6 -4 -10 -1 -10 4 0 14 -92 12 -121
-3z"/>
<path d="M2745 5370 c-8 -9 -15 -24 -15 -33 0 -22 -9 -22 -25 0 -15 20 -35 9
-35 -20 1 -46 40 -71 105 -68 60 3 72 9 83 40 11 31 -8 90 -30 92 -52 5 -70 3
-83 -11z"/>
<path d="M3009 5343 c0 -5 -2 -16 -4 -25 -7 -36 66 -95 78 -64 3 6 -8 27 -24
45 -15 19 -26 38 -23 43 3 4 -2 8 -10 8 -9 0 -16 -3 -17 -7z"/>
<path d="M1090 5100 c0 -14 42 -70 52 -70 4 0 8 9 8 20 0 11 -5 20 -12 20 -6
0 -8 3 -5 7 4 3 -1 12 -11 19 -21 16 -32 17 -32 4z"/>
<path d="M1303 5085 c-22 -26 -23 -73 -2 -86 6 -3 9 -10 7 -14 -1 -5 4 -9 12
-10 8 -2 20 -4 25 -5 40 -9 85 27 85 69 0 63 -85 94 -127 46z"/>
<path d="M1417 5104 c-3 -4 -1 -12 6 -19 7 -7 19 -22 27 -34 8 -11 20 -21 27
-21 17 0 17 3 -8 44 -20 34 -38 44 -52 30z"/>
<path d="M1586 5087 c-29 -30 -25 -81 10 -104 25 -16 104 -24 104 -10 0 5 4 6
10 2 5 -3 19 4 30 15 16 16 20 30 17 56 -7 47 -31 63 -95 64 -42 0 -58 -5 -76
-23z"/>
<path d="M1857 5087 c-22 -27 -17 -85 10 -104 19 -14 121 -17 141 -5 7 5 16
22 21 39 7 24 5 38 -10 62 -18 29 -22 31 -81 31 -53 0 -66 -4 -81 -23z"/>
<path d="M2148 5096 c-27 -20 -37 -57 -23 -89 6 -15 14 -24 18 -21 4 4 7 2 7
-5 0 -7 5 -9 10 -6 6 3 10 2 10 -2 0 -8 70 -7 95 1 6 2 14 3 19 2 8 -1 28 36
31 59 1 12 -25 57 -40 67 -17 13 -109 8 -127 -6z"/>
<path d="M2406 5079 c-24 -41 -2 -113 32 -101 6 2 12 0 12 -5 0 -11 85 -7 109
6 37 20 35 97 -3 124 -6 4 -39 6 -72 6 -56 -2 -63 -5 -78 -30z"/>
<path d="M2703 5098 c-36 -18 -44 -73 -14 -107 17 -19 28 -22 84 -20 55 2 67
5 75 23 20 41 20 54 2 83 -16 26 -23 30 -71 31 -30 1 -64 -4 -76 -10z"/>
<path d="M3025 5086 c-13 -13 -22 -32 -20 -42 2 -11 4 -26 4 -35 1 -8 16 -22
34 -31 32 -15 36 -15 64 3 24 16 30 26 31 60 2 33 -2 42 -18 46 -11 3 -17 9
-14 14 13 21 -58 8 -81 -15z"/>
<path d="M1313 4814 c-3 -8 4 -25 16 -38 11 -12 21 -26 21 -31 0 -5 7 -16 16
-26 33 -36 75 7 60 64 -10 40 -100 65 -113 31z"/>
<path d="M1598 4824 c-9 -3 -21 -19 -27 -35 -20 -57 23 -108 77 -93 15 4 42 8
61 10 19 2 38 9 43 16 10 16 3 77 -11 91 -11 11 -114 19 -143 11z"/>
<path d="M1863 4815 c-20 -14 -22 -28 -14 -91 4 -33 136 -44 165 -14 13 14 20
44 17 81 -2 36 -125 54 -168 24z"/>
<path d="M2136 4805 c-51 -55 -8 -112 84 -113 42 -1 99 23 86 35 -3 4 -1 12 4
18 14 17 -3 61 -29 74 -11 6 -43 11 -71 11 -41 0 -55 -5 -74 -25z"/>
<path d="M2413 4811 c-26 -25 -23 -78 6 -102 25 -21 118 -24 144 -4 29 21 33
79 8 104 -29 29 -127 30 -158 2z"/>
<path d="M2696 4815 c-41 -31 -31 -98 15 -114 76 -27 146 -4 150 49 2 39 0 47
-17 64 -20 21 -121 21 -148 1z"/>
<path d="M2970 4810 c-12 -12 -20 -33 -20 -55 0 -28 5 -37 30 -50 46 -24 128
-18 146 11 26 39 25 64 -3 90 -35 32 -123 34 -153 4z"/>
<path d="M1602 4553 c-13 -5 -39 -52 -37 -68 4 -33 20 -55 47 -64 62 -22 116
58 76 112 -13 17 -63 29 -86 20z"/>
<path d="M1880 4549 c0 -5 -7 -9 -15 -9 -8 0 -17 -14 -21 -35 -9 -51 15 -85
64 -86 77 -3 106 6 119 33 11 25 0 83 -19 94 -17 11 -128 14 -128 3z"/>
<path d="M2140 4530 c-34 -36 -34 -55 0 -88 23 -24 34 -27 80 -25 80 4 112 42
83 102 -9 17 -23 32 -32 32 -101 8 -104 8 -131 -21z"/>
<path d="M2432 4550 c-41 -17 -50 -91 -15 -117 16 -12 58 -17 113 -14 52 4 77
68 42 111 -20 25 -100 36 -140 20z"/>
<path d="M2693 4534 c-51 -51 -16 -116 65 -117 82 -1 110 21 103 83 -4 40 -25
53 -88 55 -48 2 -61 -2 -80 -21z"/>
<path d="M2974 4535 c-50 -50 -16 -121 57 -119 49 1 92 13 101 27 22 35 -1
105 -35 108 -81 9 -100 6 -123 -16z"/>
<path d="M3316 4552 c-3 -5 -19 -7 -36 -4 -27 4 -32 0 -45 -31 -18 -43 -5 -82
29 -94 42 -14 118 -4 139 18 21 23 17 78 -8 99 -18 15 -72 23 -79 12z"/>
<path d="M1860 4258 c-43 -40 -14 -118 45 -118 41 0 67 9 59 21 -3 5 -1 9 4 9
8 0 9 16 4 71 -2 17 -44 38 -74 37 -10 -1 -27 -10 -38 -20z"/>
<path d="M2147 4265 c-22 -17 -43 -75 -26 -75 5 0 9 -6 9 -14 0 -26 30 -39 87
-37 58 1 87 16 96 51 6 24 -22 80 -42 82 -52 5 -112 2 -124 -7z"/>
<path d="M2437 4272 c-17 -3 -44 -47 -42 -67 6 -54 23 -65 105 -66 44 -1 57 2
71 20 10 12 16 34 15 49 -2 15 -4 32 -5 39 -2 21 -88 36 -144 25z"/>
<path d="M2684 4245 c-19 -37 -13 -79 14 -94 16 -8 72 -14 114 -12 28 2 48 30
48 70 0 51 -18 64 -95 66 -62 2 -64 1 -81 -30z"/>
<path d="M2967 4253 c-23 -29 -21 -69 3 -93 15 -15 33 -20 78 -20 31 0 64 5
72 10 8 5 11 10 5 10 -5 0 -5 4 1 8 15 9 20 41 10 69 -9 27 -36 37 -102 38
-41 0 -54 -4 -67 -22z"/>
<path d="M3263 4269 c-24 -9 -43 -38 -39 -60 9 -55 34 -74 94 -72 12 1 33 1
47 2 35 1 58 40 50 84 -4 20 -14 39 -23 43 -26 10 -104 12 -129 3z"/>
<path d="M3584 4262 c-12 -9 -24 -26 -28 -36 -6 -18 -7 -18 -20 -1 -17 24 -37
10 -32 -22 9 -45 56 -84 79 -64 7 5 19 6 26 2 51 -32 113 72 69 115 -22 22
-71 25 -94 6z"/>
<path d="M2476 4000 c-77 -10 -109 -71 -61 -119 26 -27 162 -20 166 8 0 3 2
15 5 26 12 61 -30 94 -110 85z"/>
<path d="M3873 3994 c-16 -8 -30 -20 -31 -27 0 -7 -3 -22 -6 -34 -11 -51 69
-92 111 -56 23 19 26 30 24 76 -1 17 -8 30 -18 33 -10 3 -25 9 -34 14 -10 5
-27 2 -46 -6z"/>
<path d="M1920 3991 c0 -5 7 -14 15 -21 8 -7 15 -18 15 -25 0 -7 7 -15 15 -19
23 -8 19 30 -5 54 -21 21 -40 26 -40 11z"/>
<path d="M2137 3976 c-23 -25 -33 -66 -16 -66 5 0 9 -7 9 -15 0 -19 47 -38 76
-31 38 10 56 36 52 73 -5 40 -2 41 24 7 28 -34 48 -16 24 21 -19 30 -48 44
-54 27 -2 -8 -11 -8 -28 -1 -40 15 -63 11 -87 -15z"/>
<path d="M2703 3990 c-14 -6 -24 -21 -29 -45 -10 -54 19 -81 89 -83 66 -1 93
16 99 63 3 30 0 40 -20 56 -26 20 -99 25 -139 9z"/>
<path d="M2970 3978 c-23 -25 -26 -66 -7 -92 20 -27 124 -32 156 -7 31 24 32
78 0 103 -33 27 -122 25 -149 -4z"/>
<path d="M3250 3982 c-33 -27 -34 -77 -2 -103 34 -26 138 -22 159 7 18 24 10
82 -13 99 -28 20 -118 18 -144 -3z"/>
<path d="M3533 3990 c-25 -10 -38 -48 -29 -84 8 -31 54 -49 111 -43 53 5 72
20 79 60 8 45 -30 77 -91 76 -26 0 -58 -4 -70 -9z"/>
<path d="M2149 3714 c-14 -17 36 -101 65 -110 47 -15 59 74 14 107 -26 20 -64
21 -79 3z"/>
<path d="M2428 3714 c-16 -8 -29 -21 -29 -29 -1 -8 -2 -21 -3 -27 -4 -26 25
-68 47 -69 37 -2 62 3 68 13 3 5 17 6 31 3 35 -9 52 15 43 64 -4 23 -14 42
-23 46 -35 15 -107 14 -134 -1z"/>
<path d="M2708 3718 c-21 -7 -28 -18 -33 -51 -7 -37 -5 -43 19 -62 28 -22 106
-28 137 -10 45 27 40 105 -8 123 -34 13 -79 13 -115 0z"/>
<path d="M2974 3705 c-30 -30 -31 -69 -1 -99 38 -38 156 -23 165 22 1 6 3 15
4 20 4 18 -15 61 -30 68 -10 4 -39 8 -66 10 -40 2 -52 -1 -72 -21z"/>
<path d="M3267 3722 c-41 -9 -54 -87 -19 -122 22 -21 126 -18 152 5 27 25 26
70 -4 100 -24 24 -72 30 -129 17z"/>
<path d="M3528 3706 c-29 -25 -34 -83 -9 -106 8 -8 17 -14 18 -12 2 1 4 2 6 1
13 -6 88 -3 109 4 49 16 54 90 9 123 -27 20 -106 14 -133 -10z"/>
<path d="M3800 3703 c-45 -58 -15 -113 67 -117 76 -4 103 15 103 75 0 47 -26
65 -97 67 -45 1 -55 -2 -73 -25z"/>
<path d="M2415 3430 c-21 -23 -25 -61 -8 -92 11 -23 20 -28 53 -28 22 0 45 7
54 16 32 31 12 112 -27 115 -7 0 -22 2 -34 3 -13 2 -30 -5 -38 -14z"/>
<path d="M2724 3441 c-52 -9 -72 -73 -34 -111 39 -39 161 -25 172 19 8 30 -12
79 -35 87 -24 8 -73 11 -103 5z"/>
<path d="M3000 3442 c-47 -7 -65 -66 -34 -110 13 -19 24 -22 77 -22 34 0 67 4
73 8 38 25 32 105 -9 118 -26 8 -72 11 -107 6z"/>
<path d="M3261 3438 c-37 -13 -48 -78 -18 -115 15 -20 141 -17 158 3 28 34 20
98 -14 109 -32 10 -102 12 -126 3z"/>
<path d="M3532 3433 c-21 -10 -28 -21 -30 -47 -4 -53 22 -76 88 -77 57 -2 105
14 95 32 -4 5 -2 9 3 9 5 0 8 10 6 23 -3 31 -3 30 -19 51 -18 24 -101 29 -143
9z"/>
<path d="M3831 3439 c-18 -4 -37 -13 -42 -21 -14 -21 -10 -61 7 -86 13 -19 24
-22 77 -22 34 0 67 4 73 8 20 13 30 43 26 71 -6 46 -65 66 -141 50z"/>
<path d="M4155 3442 c-3 -3 -21 -5 -40 -4 -29 2 -37 -2 -50 -27 -16 -32 -9
-67 16 -87 17 -13 129 -17 147 -6 23 15 26 75 5 99 -18 22 -65 37 -78 25z"/>
<path d="M4396 3409 c-12 -21 -15 -34 -8 -41 6 -6 8 -17 5 -26 -4 -9 -2 -13 4
-9 6 4 13 0 17 -8 8 -21 28 -19 54 5 27 26 28 64 2 90 -28 28 -53 25 -74 -11z"/>
<path d="M4274 3166 c-27 -33 -27 -34 -47 -15 -24 22 -65 25 -91 6 -10 -7 -20
-29 -23 -49 -3 -28 0 -40 18 -57 13 -12 27 -21 32 -21 6 0 4 -8 -4 -17 -8 -10
-21 -30 -29 -45 -7 -16 -17 -28 -21 -28 -5 0 -23 -21 -40 -47 -18 -27 -36 -49
-41 -51 -4 -2 -8 -8 -8 -14 0 -5 -6 -15 -12 -22 -15 -15 -27 -31 -143 -186
-47 -63 -98 -131 -113 -150 -16 -19 -43 -56 -61 -82 -25 -37 -38 -48 -59 -48
-23 -1 -90 -29 -70 -30 4 0 4 -10 -1 -22 -5 -13 -5 -32 -1 -43 7 -21 -10 -57
-42 -86 -10 -9 -18 -21 -18 -28 0 -6 -3 -11 -8 -11 -4 0 -18 -18 -32 -40 -14
-22 -28 -40 -32 -40 -5 0 -8 -8 -8 -17 -1 -13 -5 -11 -15 8 -44 81 -149 13
-114 -73 6 -16 17 -28 23 -28 6 0 21 -3 33 -6 17 -5 30 2 52 25 29 31 30 32
41 11 6 -12 18 -29 25 -38 8 -9 28 -35 44 -57 17 -22 34 -44 39 -50 4 -5 25
-35 47 -65 22 -30 42 -57 45 -60 13 -13 70 -90 70 -95 0 -4 16 -25 35 -48 19
-23 80 -103 135 -177 56 -74 110 -146 121 -160 11 -14 28 -37 37 -52 9 -16 20
-28 24 -28 4 0 8 -5 8 -11 0 -6 6 -16 13 -23 13 -13 29 -34 98 -128 23 -32 46
-58 51 -58 5 0 7 -3 5 -7 -3 -5 10 -26 29 -48 l33 -40 1046 -1 c853 -1 1048 1
1063 12 9 8 12 14 5 14 -7 0 -28 24 -47 53 -19 28 -44 62 -55 74 -12 12 -21
25 -21 28 0 4 -6 12 -12 19 -7 7 -22 25 -33 41 -11 15 -31 40 -43 56 -13 16
-21 29 -18 29 3 0 -12 18 -33 40 -20 21 -44 52 -51 67 -8 15 -25 38 -38 51
-13 12 -19 22 -15 22 4 0 0 5 -9 11 -10 5 -18 14 -18 20 0 5 -4 15 -10 22 -58
70 -80 100 -80 109 0 5 -4 6 -10 3 -5 -3 -10 1 -10 9 0 8 -6 21 -13 28 -7 7
-24 29 -37 48 -33 48 -42 59 -62 78 -10 9 -18 22 -18 29 0 7 -4 13 -8 13 -4 0
-15 12 -24 28 -9 15 -25 37 -35 49 -10 12 -46 58 -78 103 -33 45 -67 90 -75
100 -8 10 -23 29 -32 42 -9 13 -32 43 -50 67 -18 24 -50 67 -70 95 -20 28 -46
62 -58 76 -22 27 -172 228 -205 275 -11 15 -27 36 -36 45 -9 9 -31 39 -49 66
-19 27 -42 56 -52 65 -10 9 -18 19 -18 23 0 5 -51 76 -86 119 -8 9 -14 20 -14
23 0 4 -8 14 -18 23 -9 9 -35 42 -56 73 -21 32 -47 66 -56 76 -9 10 -37 47
-62 83 -25 35 -52 65 -61 67 -9 2 -31 -20 -56 -55 -36 -52 -60 -83 -99 -128
-12 -13 -16 -11 -38 12 -14 15 -33 40 -42 55 -9 16 -20 28 -24 28 -4 0 -8 6
-8 13 0 6 -16 29 -35 50 l-34 38 -27 -35z"/>
<path d="M2416 3154 c-9 -8 -16 -18 -17 -22 0 -4 -2 -17 -5 -30 -3 -15 5 -31
22 -48 23 -24 31 -25 85 -21 70 5 78 11 85 58 7 46 -16 79 -45 62 -15 -10 -22
-9 -31 2 -16 20 -75 19 -94 -1z"/>
<path d="M2694 3153 c-37 -34 -30 -94 13 -112 35 -14 133 -7 144 11 18 27 14
76 -8 101 -12 12 -31 17 -73 17 -40 0 -62 -5 -76 -17z"/>
<path d="M2982 3158 c-45 -22 -41 -98 5 -117 24 -9 53 -10 120 -2 17 2 40 52
35 78 -2 13 -13 30 -25 38 -25 17 -101 19 -135 3z"/>
<path d="M3258 3163 c-37 -10 -42 -91 -7 -120 14 -11 145 -11 156 0 2 3 7 23
10 44 7 57 -21 83 -90 82 -29 -1 -60 -3 -69 -6z"/>
<path d="M3532 3163 c-12 -2 -20 -8 -17 -13 3 -5 1 -11 -5 -15 -12 -7 -13 -55
-2 -71 23 -35 126 -45 163 -15 26 21 28 74 4 101 -14 15 -30 20 -69 19 -28 -1
-61 -4 -74 -6z"/>
<path d="M3800 3150 c-26 -26 -26 -74 1 -98 16 -16 31 -19 77 -16 83 5 82 5
89 33 18 69 -11 101 -93 101 -41 0 -59 -5 -74 -20z"/>
<path d="M2186 3127 c-41 -55 -50 -78 -35 -88 45 -28 109 14 105 68 -4 57 -35
66 -70 20z"/>
<path d="M2140 2870 c-28 -30 -30 -37 -17 -77 16 -47 100 -53 129 -9 26 38 -5
99 -55 110 -23 6 -34 1 -57 -24z"/>
<path d="M2432 2887 c-43 -19 -47 -83 -8 -123 17 -17 125 -12 136 6 5 8 10 11
11 5 1 -17 18 29 18 51 2 41 -31 68 -86 69 -28 1 -59 -3 -71 -8z"/>
<path d="M2708 2886 c-30 -15 -45 -69 -28 -101 7 -13 17 -22 21 -19 4 2 10 1
13 -4 3 -4 27 -9 54 -9 64 -2 92 21 92 75 0 28 -6 41 -22 51 -28 18 -100 22
-130 7z"/>
<path d="M2983 2881 c-28 -22 -46 -58 -33 -66 6 -4 8 -10 5 -14 -2 -5 6 -18
18 -29 29 -27 115 -26 147 3 26 23 26 76 1 99 -27 24 -112 28 -138 7z"/>
<path d="M3270 2887 c0 -4 -4 -6 -8 -3 -15 9 -40 -48 -35 -77 8 -41 41 -58
102 -54 58 5 86 24 89 63 2 31 -24 78 -38 69 -6 -4 -10 -2 -10 3 0 5 -22 9
-50 8 -27 0 -50 -4 -50 -9z"/>
<path d="M3553 2892 c-53 -8 -71 -87 -28 -120 38 -30 129 -25 153 9 9 13 15
33 14 44 -4 30 -24 65 -34 59 -4 -3 -8 -1 -8 4 0 8 -53 11 -97 4z"/>
<path d="M3873 2887 c-39 -18 -49 -75 -19 -110 41 -48 116 -20 118 44 2 53
-52 88 -99 66z"/>
<path d="M1940 2794 c-12 -19 -20 -38 -16 -41 9 -9 53 35 59 58 9 32 -20 22
-43 -17z"/>
<path d="M2270 2798 c-32 -53 -25 -63 19 -25 14 12 27 30 29 40 5 29 -27 19
-48 -15z"/>
<path d="M1878 2608 c-29 -10 -46 -57 -34 -96 14 -43 118 -43 129 0 6 19 1 78
-6 85 -13 12 -66 19 -89 11z"/>
<path d="M2194 2614 c-5 -1 -21 -5 -35 -8 -24 -5 -33 -18 -44 -63 -2 -7 1 -13
6 -13 5 0 9 -9 9 -19 0 -21 33 -33 90 -33 39 -1 92 20 85 33 -3 4 -2 10 3 13
16 10 0 63 -22 76 -21 11 -72 19 -92 14z"/>
<path d="M2430 2606 c-35 -16 -46 -76 -18 -106 14 -15 32 -20 74 -20 71 0 92
12 100 56 9 51 -16 75 -84 77 -28 1 -61 -2 -72 -7z"/>
<path d="M2706 2600 c-25 -12 -32 -22 -34 -52 -4 -46 22 -66 88 -69 86 -4 117
25 96 91 -10 33 -14 35 -65 40 -38 4 -63 1 -85 -10z"/>
<path d="M3028 2612 c-70 -5 -100 -57 -62 -110 13 -19 24 -22 77 -22 59 1 100
16 96 36 -1 5 0 11 1 14 9 24 5 41 -14 58 -27 24 -40 28 -98 24z"/>
<path d="M3287 2609 c-48 -8 -59 -18 -60 -63 -1 -47 13 -59 76 -66 75 -8 105
4 113 46 13 68 -35 99 -129 83z"/>
<path d="M3557 2611 c-31 -10 -53 -38 -53 -68 -1 -33 4 -34 36 -7 14 11 16 10
17 -9 1 -12 10 -27 19 -34 26 -19 87 -16 104 5 23 26 19 74 -8 96 -22 17 -84
27 -115 17z"/>
<path d="M1918 2342 c-53 -3 -78 -27 -78 -72 0 -46 33 -69 97 -68 23 0 47 -3
54 -7 8 -5 10 -4 5 3 -4 7 -1 12 8 12 19 0 36 57 26 85 -11 31 -59 51 -112 47z"/>
<path d="M1592 2331 c-19 -12 -30 -72 -19 -98 14 -31 69 -41 102 -19 23 15 30
37 26 76 -5 38 -74 64 -109 41z"/>
<path d="M2138 2318 c-10 -12 -19 -28 -19 -35 -1 -7 -2 -19 -3 -25 -4 -32 48
-58 111 -55 73 4 109 49 80 100 -18 32 -22 34 -90 36 -53 1 -64 -2 -79 -21z"/>
<path d="M2418 2327 c-9 -7 -18 -27 -21 -45 -7 -45 19 -75 66 -76 21 -1 37 -5
37 -9 0 -5 4 -5 10 -2 5 3 19 8 31 10 47 9 63 77 26 115 -14 16 -31 20 -75 20
-31 0 -64 -6 -74 -13z"/>
<path d="M2692 2319 c-18 -16 -22 -30 -20 -57 3 -35 6 -38 53 -54 28 -9 52
-12 53 -7 2 5 8 6 13 3 6 -3 23 0 40 6 21 9 29 20 30 39 3 70 -14 87 -89 90
-46 1 -62 -3 -80 -20z"/>
<path d="M2970 2318 c-26 -28 -26 -72 2 -97 17 -17 32 -20 80 -17 56 3 93 20
83 36 -3 5 -1 11 3 14 15 9 1 56 -21 71 -12 9 -44 15 -74 15 -41 0 -57 -5 -73
-22z"/>
<path d="M3250 2322 c-25 -20 -30 -72 -11 -96 15 -18 117 -27 147 -14 13 6 26
19 30 30 9 28 -5 77 -26 88 -32 17 -115 12 -140 -8z"/>
<path d="M1595 2054 c-38 -39 -40 -87 -3 -117 16 -13 33 -17 72 -14 83 7 99
20 92 78 -5 40 -14 48 -50 47 -18 -1 -39 3 -47 8 -24 15 -47 14 -64 -2z"/>
<path d="M1864 2043 c-35 -32 -29 -96 10 -110 30 -11 108 -11 128 -1 23 11 38
67 25 93 -15 29 -36 39 -91 39 -37 1 -54 -4 -72 -21z"/>
<path d="M2145 2042 c-14 -14 -26 -29 -26 -33 -4 -29 -3 -35 7 -46 7 -7 14
-18 16 -25 7 -19 108 -19 141 0 15 9 25 22 23 29 -3 7 -1 13 5 13 6 0 6 6 0
19 -6 10 -8 21 -5 24 12 12 -51 41 -92 43 -35 1 -49 -4 -69 -24z"/>
<path d="M2438 2058 c-24 -8 -40 -31 -43 -63 -2 -14 24 -65 33 -66 27 -5 101
-7 119 -2 46 11 53 101 9 125 -27 15 -83 17 -118 6z"/>
<path d="M2694 2044 c-26 -25 -30 -50 -12 -89 12 -27 10 -27 86 -29 64 -2 80
8 91 55 13 56 -16 81 -97 84 -32 1 -49 -5 -68 -21z"/>
<path d="M2989 2053 c-48 -20 -52 -99 -7 -120 25 -11 118 -10 137 1 6 4 9 12
6 17 -4 5 -1 9 5 9 16 0 10 61 -8 82 -8 10 -19 15 -23 12 -5 -3 -9 -1 -9 4 0
12 -67 9 -101 -5z"/>
<path d="M1352 2013 c-43 -55 -49 -81 -20 -88 35 -8 59 -1 80 24 22 28 23 67
4 87 -22 21 -32 18 -64 -23z"/>
<path d="M1324 1778 c-43 -20 -51 -87 -15 -115 25 -19 85 -16 104 5 24 26 21
71 -5 93 -11 11 -24 19 -27 20 -3 0 -13 2 -21 3 -8 2 -25 -1 -36 -6z"/>
<path d="M1627 1780 c-45 -8 -65 -32 -60 -74 5 -47 27 -58 105 -54 37 2 70 6
73 10 3 3 8 21 11 39 11 64 -40 94 -129 79z"/>
<path d="M1887 1781 c-45 -14 -61 -67 -31 -109 13 -19 24 -22 75 -22 33 0 69
5 80 10 37 21 18 118 -24 121 -58 3 -89 3 -100 0z"/>
<path d="M2162 1778 c-23 -8 -47 -39 -47 -59 0 -8 8 -27 18 -42 16 -25 23 -27
81 -27 66 0 94 16 100 57 5 27 -25 73 -49 74 -11 0 -35 1 -53 2 -18 1 -41 -1
-50 -5z"/>
<path d="M2438 1775 c-37 -12 -54 -55 -36 -89 16 -31 28 -36 90 -36 61 0 91 7
83 20 -3 5 -1 11 5 15 13 8 13 65 -1 65 -5 0 -8 4 -5 9 13 21 -87 33 -136 16z"/>
<path d="M2723 1782 c-13 -2 -23 -8 -23 -13 0 -6 -4 -8 -9 -5 -5 3 -11 -4 -15
-17 -18 -68 10 -97 95 -97 71 0 89 13 89 64 0 39 -21 66 -53 67 -12 0 -31 2
-42 3 -11 1 -30 0 -42 -2z"/>
<path d="M3044 1777 c-34 -19 -41 -32 -38 -67 5 -41 26 -60 69 -60 41 0 65 27
65 72 0 28 -5 37 -27 48 -39 18 -47 19 -69 7z"/>
<path d="M1114 1695 c-27 -36 -27 -52 0 -42 20 8 49 64 37 72 -6 3 -22 -11
-37 -30z"/>
<path d="M1441 1692 c-25 -38 -24 -44 4 -36 17 4 45 44 45 64 0 19 -29 2 -49
-28z"/>
<path d="M1030 1490 c-34 -34 -25 -92 19 -115 58 -30 121 38 90 97 -7 13 -17
26 -23 30 -21 14 -66 8 -86 -12z"/>
<path d="M1306 1485 c-17 -18 -22 -33 -18 -52 7 -44 27 -59 79 -62 26 -1 50
-4 55 -7 4 -3 8 0 8 5 0 6 6 11 13 11 6 0 20 14 29 31 15 25 15 34 5 52 -23
41 -35 47 -92 47 -47 0 -60 -4 -79 -25z"/>
<path d="M1591 1493 c-24 -21 -33 -60 -19 -86 13 -26 69 -48 86 -35 8 7 12 7
12 -1 0 -14 70 14 82 32 13 20 5 67 -15 87 -24 27 -115 28 -146 3z"/>
<path d="M1867 1497 c-10 -6 -20 -28 -23 -48 -9 -52 22 -79 91 -79 68 0 95 20
95 69 0 53 -23 71 -91 71 -31 0 -63 -6 -72 -13z"/>
<path d="M2148 1495 c-7 -9 -17 -21 -23 -28 -16 -19 -11 -44 13 -72 21 -24 29
-26 80 -24 96 5 128 65 66 126 -18 19 -120 17 -136 -2z"/>
<path d="M2417 1492 c-25 -27 -28 -68 -8 -94 13 -16 33 -23 75 -28 31 -3 56
-2 56 2 0 4 7 8 15 8 37 0 43 80 9 114 -23 23 -126 22 -147 -2z"/>
<path d="M2701 1493 c-27 -22 -40 -83 -17 -83 8 0 19 8 25 18 8 15 11 14 20
-11 11 -28 73 -64 79 -46 2 5 9 9 16 9 17 0 42 48 38 74 -7 40 -32 56 -87 56
-35 0 -60 -6 -74 -17z"/>
<path d="M3032 1491 c-12 -10 -19 -21 -15 -25 3 -3 2 -6 -4 -6 -14 0 -11 -42
3 -47 11 -4 74 72 74 89 0 15 -37 8 -58 -11z"/>
<path d="M778 1228 c-30 -10 -43 -37 -39 -82 3 -51 62 -73 109 -40 16 11 22
25 22 52 0 20 -4 42 -8 47 -15 21 -57 32 -84 23z"/>
<path d="M1078 1232 c-42 -4 -68 -31 -68 -72 0 -42 20 -60 77 -67 47 -5 122
11 109 24 -2 3 0 18 4 34 7 24 4 34 -13 55 -23 26 -45 31 -109 26z"/>
<path d="M1366 1230 c-72 -9 -98 -51 -67 -109 15 -28 91 -38 146 -18 19 6 50
77 34 77 -4 0 -10 8 -14 18 -8 27 -43 39 -99 32z"/>
<path d="M1639 1232 c-54 -5 -75 -34 -71 -98 2 -28 43 -44 102 -41 64 3 84 17
85 63 3 58 -35 83 -116 76z"/>
<path d="M1853 1196 c-18 -39 -12 -80 14 -91 31 -13 115 -16 128 -5 6 5 14 7
17 4 8 -7 23 56 19 76 -7 37 -33 50 -98 50 -62 0 -64 -1 -80 -34z"/>
<path d="M2147 1218 c-22 -17 -39 -65 -26 -73 5 -4 7 -10 4 -15 -17 -27 83
-48 143 -29 17 6 32 11 32 12 0 1 4 16 9 34 8 27 6 36 -14 57 -20 22 -33 26
-78 26 -29 0 -61 -6 -70 -12z"/>
<path d="M2415 1210 c-47 -52 -17 -109 60 -115 73 -4 92 2 104 37 15 42 14 52
-8 76 -26 31 -129 32 -156 2z"/>
<path d="M2747 1212 c-28 -31 -28 -80 -1 -101 31 -24 59 -17 74 20 7 16 16 29
21 29 16 0 10 58 -7 64 -30 12 -71 6 -87 -12z"/>
<path d="M772 950 c-49 -20 -48 -110 2 -126 17 -6 86 -9 118 -5 37 5 53 97 20
118 -11 6 -25 8 -32 3 -7 -4 -28 -2 -46 6 -18 8 -35 14 -36 13 -2 0 -13 -4
-26 -9z"/>
<path d="M1038 941 c-28 -14 -30 -18 -25 -58 2 -24 7 -47 10 -50 4 -3 35 -9
71 -12 73 -8 103 5 109 49 6 32 -19 80 -41 81 -9 0 -34 2 -55 3 -22 1 -52 -5
-69 -13z"/>
<path d="M1370 950 c-25 -3 -53 -10 -62 -15 -24 -15 -29 -58 -10 -87 15 -21
26 -25 79 -27 44 -2 69 2 85 13 12 9 19 16 15 16 -4 0 -3 8 2 18 7 14 5 27 -9
49 -21 35 -37 40 -100 33z"/>
<path d="M1594 942 c-33 -17 -37 -86 -6 -109 25 -20 136 -17 153 5 22 26 22
66 1 92 -15 18 -29 23 -71 24 -29 1 -63 -5 -77 -12z"/>
<path d="M1884 947 c-8 -4 -14 -5 -14 0 0 4 -7 -2 -15 -14 -21 -30 -16 -82 10
-99 23 -15 99 -21 132 -10 32 10 44 56 26 95 -9 17 -22 31 -29 32 -55 4 -98 3
-110 -4z"/>
<path d="M2155 947 c-21 -7 -34 -27 -41 -63 -1 -6 8 -24 20 -38 19 -24 28 -27
80 -27 57 0 103 21 90 42 -3 5 -1 9 4 9 19 0 -1 58 -24 71 -28 14 -93 18 -129
6z"/>
<path d="M2473 934 c-50 -50 -17 -121 52 -114 42 4 64 27 60 65 -4 45 -18 62
-57 67 -24 4 -38 -1 -55 -18z"/>
<path d="M537 930 c-15 -12 -27 -28 -27 -36 0 -8 -7 -17 -15 -20 -8 -4 -15
-17 -15 -31 0 -13 4 -22 9 -18 5 3 12 1 15 -4 8 -13 57 -3 76 14 19 19 18 81
-1 100 -14 14 -18 13 -42 -5z"/>
</g>
</svg>
